<svg width="24" height="29" viewBox="0 0 24 29" fill="none" xmlns="http://www.w3.org/2000/svg">
<path d="M18.6355 19.882C17.7299 17.0851 15.0992 15.0554 11.9986 15.0554C8.90077 15.0554 6.26722 17.0851 5.36167 19.882H0V24.1762H5.36167C6.27009 26.9732 8.90364 29 11.9986 29C15.0964 29 17.7299 26.9732 18.6355 24.1762H24V19.882H18.6355ZM13.5976 24.1762C13.1534 24.5083 12.5975 24.7058 11.9986 24.7058C11.4025 24.7058 10.8466 24.5083 10.3995 24.1762C9.74328 23.6867 9.31916 22.9051 9.31916 22.0291C9.31916 21.1531 9.74328 20.3716 10.3967 19.882C10.8466 19.5471 11.3996 19.3496 11.9986 19.3496C12.6004 19.3496 13.1534 19.5471 13.6005 19.882C14.2538 20.3716 14.678 21.1531 14.678 22.0291C14.678 22.9051 14.2538 23.6867 13.5976 24.1762Z" fill="#FEFEFF"/>
<path d="M14.2854 7.55775C14.1192 7.71807 13.9501 7.87838 13.7781 8.0387H24V12.3329H0V8.0387C7.55391 8.0387 9.38221 6.29526 11.3165 4.45163C13.503 2.36466 15.9847 0 24 0V4.29418C17.707 4.29418 16.1968 5.73416 14.2854 7.55775Z" fill="#FEFEFF"/>
</svg>
